<svg width="728" height="130" viewBox="0 0 728 130" fill="none" xmlns="http://www.w3.org/2000/svg">
<path d="M195.068 100V30.1818H223.023C228.159 30.1818 232.443 30.9432 235.875 32.4659C239.307 33.9886 241.886 36.1023 243.614 38.8068C245.341 41.4886 246.205 44.5795 246.205 48.0795C246.205 50.8068 245.659 53.2045 244.568 55.2727C243.477 57.3182 241.977 59 240.068 60.3182C238.182 61.6136 236.023 62.5341 233.591 63.0795V63.7614C236.25 63.875 238.739 64.625 241.057 66.0114C243.398 67.3977 245.295 69.3409 246.75 71.8409C248.205 74.3182 248.932 77.2727 248.932 80.7045C248.932 84.4091 248.011 87.7159 246.17 90.625C244.352 93.5114 241.659 95.7955 238.091 97.4773C234.523 99.1591 230.125 100 224.898 100H195.068ZM209.83 87.9318H221.864C225.977 87.9318 228.977 87.1477 230.864 85.5795C232.75 83.9886 233.693 81.875 233.693 79.2386C233.693 77.3068 233.227 75.6023 232.295 74.125C231.364 72.6477 230.034 71.4886 228.307 70.6477C226.602 69.8068 224.568 69.3864 222.205 69.3864H209.83V87.9318ZM209.83 59.3977H220.773C222.795 59.3977 224.591 59.0455 226.159 58.3409C227.75 57.6136 229 56.5909 229.909 55.2727C230.841 53.9545 231.307 52.375 231.307 50.5341C231.307 48.0114 230.409 45.9773 228.614 44.4318C226.841 42.8864 224.318 42.1136 221.045 42.1136H209.83V59.3977ZM281.923 101.023C276.628 101.023 272.048 99.8977 268.185 97.6477C264.344 95.375 261.378 92.2159 259.287 88.1705C257.196 84.1023 256.151 79.3864 256.151 74.0227C256.151 68.6136 257.196 63.8864 259.287 59.8409C261.378 55.7727 264.344 52.6136 268.185 50.3636C272.048 48.0909 276.628 46.9545 281.923 46.9545C287.219 46.9545 291.787 48.0909 295.628 50.3636C299.491 52.6136 302.469 55.7727 304.56 59.8409C306.651 63.8864 307.696 68.6136 307.696 74.0227C307.696 79.3864 306.651 84.1023 304.56 88.1705C302.469 92.2159 299.491 95.375 295.628 97.6477C291.787 99.8977 287.219 101.023 281.923 101.023ZM281.991 89.7727C284.401 89.7727 286.412 89.0909 288.026 87.7273C289.639 86.3409 290.855 84.4545 291.673 82.0682C292.514 79.6818 292.935 76.9659 292.935 73.9205C292.935 70.875 292.514 68.1591 291.673 65.7727C290.855 63.3864 289.639 61.5 288.026 60.1136C286.412 58.7273 284.401 58.0341 281.991 58.0341C279.56 58.0341 277.514 58.7273 275.855 60.1136C274.219 61.5 272.98 63.3864 272.139 65.7727C271.321 68.1591 270.912 70.875 270.912 73.9205C270.912 76.9659 271.321 79.6818 272.139 82.0682C272.98 84.4545 274.219 86.3409 275.855 87.7273C277.514 89.0909 279.56 89.7727 281.991 89.7727ZM331.662 69.7273V100H317.139V47.6364H330.98V56.875H331.594C332.753 53.8295 334.696 51.4205 337.423 49.6477C340.151 47.8523 343.457 46.9545 347.344 46.9545C350.98 46.9545 354.151 47.75 356.855 49.3409C359.56 50.9318 361.662 53.2045 363.162 56.1591C364.662 59.0909 365.412 62.5909 365.412 66.6591V100H350.889V69.25C350.912 66.0455 350.094 63.5455 348.435 61.75C346.776 59.9318 344.491 59.0227 341.582 59.0227C339.628 59.0227 337.901 59.4432 336.401 60.2841C334.923 61.125 333.764 62.3523 332.923 63.9659C332.105 65.5568 331.685 67.4773 331.662 69.7273ZM376.585 100V91.3409L402.222 59.6023V59.2273H377.472V47.6364H419.71V57.0795L395.642 88.0341V88.4091H420.597V100H376.585ZM431.702 100V47.6364H446.224V100H431.702ZM438.997 40.8864C436.838 40.8864 434.986 40.1705 433.44 38.7386C431.918 37.2841 431.156 35.5455 431.156 33.5227C431.156 31.5227 431.918 29.8068 433.44 28.375C434.986 26.9205 436.838 26.1932 438.997 26.1932C441.156 26.1932 442.997 26.9205 444.52 28.375C446.065 29.8068 446.838 31.5227 446.838 33.5227C446.838 35.5455 446.065 37.2841 444.52 38.7386C442.997 40.1705 441.156 40.8864 438.997 40.8864Z" fill="black"/>
<path d="M458.131 100V30.1818H486.085C491.222 30.1818 495.506 30.9432 498.938 32.4659C502.369 33.9886 504.949 36.1023 506.676 38.8068C508.403 41.4886 509.267 44.5795 509.267 48.0795C509.267 50.8068 508.722 53.2045 507.631 55.2727C506.54 57.3182 505.04 59 503.131 60.3182C501.244 61.6136 499.085 62.5341 496.653 63.0795V63.7614C499.313 63.875 501.801 64.625 504.119 66.0114C506.46 67.3977 508.358 69.3409 509.812 71.8409C511.267 74.3182 511.994 77.2727 511.994 80.7045C511.994 84.4091 511.074 87.7159 509.233 90.625C507.415 93.5114 504.722 95.7955 501.153 97.4773C497.585 99.1591 493.188 100 487.96 100H458.131ZM472.892 87.9318H484.926C489.04 87.9318 492.04 87.1477 493.926 85.5795C495.813 83.9886 496.756 81.875 496.756 79.2386C496.756 77.3068 496.29 75.6023 495.358 74.125C494.426 72.6477 493.097 71.4886 491.369 70.6477C489.665 69.8068 487.631 69.3864 485.267 69.3864H472.892V87.9318ZM472.892 59.3977H483.835C485.858 59.3977 487.653 59.0455 489.222 58.3409C490.813 57.6136 492.063 56.5909 492.972 55.2727C493.903 53.9545 494.369 52.375 494.369 50.5341C494.369 48.0114 493.472 45.9773 491.676 44.4318C489.903 42.8864 487.381 42.1136 484.108 42.1136H472.892V59.3977ZM544.986 101.023C539.69 101.023 535.111 99.8977 531.247 97.6477C527.406 95.375 524.44 92.2159 522.349 88.1705C520.259 84.1023 519.213 79.3864 519.213 74.0227C519.213 68.6136 520.259 63.8864 522.349 59.8409C524.44 55.7727 527.406 52.6136 531.247 50.3636C535.111 48.0909 539.69 46.9545 544.986 46.9545C550.281 46.9545 554.849 48.0909 558.69 50.3636C562.554 52.6136 565.531 55.7727 567.622 59.8409C569.713 63.8864 570.759 68.6136 570.759 74.0227C570.759 79.3864 569.713 84.1023 567.622 88.1705C565.531 92.2159 562.554 95.375 558.69 97.6477C554.849 99.8977 550.281 101.023 544.986 101.023ZM545.054 89.7727C547.463 89.7727 549.474 89.0909 551.088 87.7273C552.702 86.3409 553.918 84.4545 554.736 82.0682C555.577 79.6818 555.997 76.9659 555.997 73.9205C555.997 70.875 555.577 68.1591 554.736 65.7727C553.918 63.3864 552.702 61.5 551.088 60.1136C549.474 58.7273 547.463 58.0341 545.054 58.0341C542.622 58.0341 540.577 58.7273 538.918 60.1136C537.281 61.5 536.043 63.3864 535.202 65.7727C534.384 68.1591 533.974 70.875 533.974 73.9205C533.974 76.9659 534.384 79.6818 535.202 82.0682C536.043 84.4545 537.281 86.3409 538.918 87.7273C540.577 89.0909 542.622 89.7727 545.054 89.7727ZM595.134 100.989C591.793 100.989 588.815 100.409 586.202 99.25C583.588 98.0682 581.52 96.3295 579.997 94.0341C578.497 91.7159 577.747 88.8295 577.747 85.375C577.747 82.4659 578.281 80.0227 579.349 78.0455C580.418 76.0682 581.872 74.4773 583.713 73.2727C585.554 72.0682 587.645 71.1591 589.986 70.5455C592.349 69.9318 594.827 69.5 597.418 69.25C600.463 68.9318 602.918 68.6364 604.781 68.3636C606.645 68.0682 607.997 67.6364 608.838 67.0682C609.679 66.5 610.099 65.6591 610.099 64.5455V64.3409C610.099 62.1818 609.418 60.5114 608.054 59.3295C606.713 58.1477 604.804 57.5568 602.327 57.5568C599.713 57.5568 597.634 58.1364 596.088 59.2955C594.543 60.4318 593.52 61.8636 593.02 63.5909L579.588 62.5C580.27 59.3182 581.611 56.5682 583.611 54.25C585.611 51.9091 588.19 50.1136 591.349 48.8636C594.531 47.5909 598.213 46.9545 602.395 46.9545C605.304 46.9545 608.088 47.2955 610.747 47.9773C613.429 48.6591 615.804 49.7159 617.872 51.1477C619.963 52.5795 621.611 54.4205 622.815 56.6705C624.02 58.8977 624.622 61.5682 624.622 64.6818V100H610.849V92.7386H610.44C609.599 94.375 608.474 95.8182 607.065 97.0682C605.656 98.2955 603.963 99.2614 601.986 99.9659C600.009 100.648 597.724 100.989 595.134 100.989ZM599.293 90.9659C601.429 90.9659 603.315 90.5455 604.952 89.7045C606.588 88.8409 607.872 87.6818 608.804 86.2273C609.736 84.7727 610.202 83.125 610.202 81.2841V75.7273C609.747 76.0227 609.122 76.2955 608.327 76.5455C607.554 76.7727 606.679 76.9886 605.702 77.1932C604.724 77.375 603.747 77.5455 602.77 77.7045C601.793 77.8409 600.906 77.9659 600.111 78.0795C598.406 78.3295 596.918 78.7273 595.645 79.2727C594.372 79.8182 593.384 80.5568 592.679 81.4886C591.974 82.3977 591.622 83.5341 591.622 84.8977C591.622 86.875 592.338 88.3864 593.77 89.4318C595.224 90.4545 597.065 90.9659 599.293 90.9659ZM635.889 100V47.6364H649.969V56.7727H650.514C651.469 53.5227 653.071 51.0682 655.321 49.4091C657.571 47.7273 660.162 46.8864 663.094 46.8864C663.821 46.8864 664.605 46.9318 665.446 47.0227C666.287 47.1136 667.026 47.2386 667.662 47.3977V60.2841C666.98 60.0795 666.037 59.8977 664.832 59.7386C663.628 59.5795 662.526 59.5 661.526 59.5C659.389 59.5 657.48 59.9659 655.798 60.8977C654.139 61.8068 652.821 63.0795 651.844 64.7159C650.889 66.3523 650.412 68.2386 650.412 70.375V100H635.889ZM692.028 100.852C688.051 100.852 684.449 99.8295 681.222 97.7841C678.017 95.7159 675.472 92.6818 673.585 88.6818C671.722 84.6591 670.79 79.7273 670.79 73.8864C670.79 67.8864 671.756 62.8977 673.688 58.9205C675.619 54.9205 678.188 51.9318 681.392 49.9545C684.619 47.9545 688.153 46.9545 691.994 46.9545C694.926 46.9545 697.369 47.4545 699.324 48.4545C701.301 49.4318 702.892 50.6591 704.097 52.1364C705.324 53.5909 706.256 55.0227 706.892 56.4318H707.335V30.1818H721.824V100H707.506V91.6136H706.892C706.21 93.0682 705.244 94.5114 703.994 95.9432C702.767 97.3523 701.165 98.5227 699.188 99.4545C697.233 100.386 694.847 100.852 692.028 100.852ZM696.631 89.2955C698.972 89.2955 700.949 88.6591 702.562 87.3864C704.199 86.0909 705.449 84.2841 706.312 81.9659C707.199 79.6477 707.642 76.9318 707.642 73.8182C707.642 70.7045 707.21 68 706.347 65.7045C705.483 63.4091 704.233 61.6364 702.597 60.3864C700.96 59.1364 698.972 58.5114 696.631 58.5114C694.244 58.5114 692.233 59.1591 690.597 60.4545C688.96 61.75 687.722 63.5455 686.881 65.8409C686.04 68.1364 685.619 70.7955 685.619 73.8182C685.619 76.8636 686.04 79.5568 686.881 81.8977C687.744 84.2159 688.983 86.0341 690.597 87.3523C692.233 88.6477 694.244 89.2955 696.631 89.2955Z" fill="#7C3AED"/>
<g clip-path="url(#clip0_1_19)">
<path d="M12.8194 35.6707L4.47188 46.0747L6.26063 60.0457L22.0613 69.8552V82.6372L35.4769 108.498L75.7238 125.145L112.989 116.822L134.753 92.1494L138.628 64.2073L154.727 60.0457V46.0747L147.87 37.4543L125.213 29.1311L92.4188 14.8628H59.9231C58.2536 14.8628 40.545 25.7622 31.8994 31.2119L12.8194 35.6707Z" fill="#F0E8FF" stroke="black"/>
<path d="M65.9055 2.06097C53.1855 4.7561 41.817 11.3354 32.1975 21.561C26.394 27.7439 25.917 28.061 22.9755 27.8232C15.0255 27.2683 5.88299 32.7378 2.38499 40.189C0.317992 44.628 -0.0795083 51.9207 1.51049 56.5976C2.86199 60.4024 8.02949 66.189 12.0045 68.1707C14.787 69.5976 15.0255 69.9939 15.8205 75.0671C17.172 82.6768 18.762 87.3537 22.896 95.5183C25.917 101.305 27.984 104.079 34.185 110.262C40.863 117 42.6915 118.348 50.085 121.915C60.42 126.988 65.667 128.415 76.32 128.97C94.446 129.921 110.585 123.976 123.702 111.53C134.037 101.78 140.954 88.939 143.18 75.4634C144.054 69.9939 144.292 69.6768 146.916 68.4085C150.812 66.5854 154.945 62.2256 156.854 57.9451C158.921 53.5061 159.079 45.4207 157.172 41.061C153.833 33.2927 144.69 27.4268 136.661 27.8232C132.924 28.061 132.924 28.061 126.802 21.561C113.526 7.45122 97.8645 0.713409 78.9435 0.871948C74.6505 0.871948 68.7675 1.42683 65.9055 2.06097ZM70.119 23.6219C72.1065 24.4939 74.9685 26.4756 76.5585 28.061L79.5 30.9939L82.4415 28.061C89.199 21.3232 99.7725 19.7378 108.518 24.1768C113.924 26.9512 118.535 32.3415 120.045 37.7317C121.396 42.4878 120.76 50.4939 118.773 54.378L117.104 57.4695L120.125 60.9573C121.794 62.8597 124.1 66.189 125.213 68.4878C127.28 72.7683 129.188 81.0915 128.393 82.439C128.075 82.9146 125.689 84.3415 123.066 85.689C104.065 95.2805 63.2025 96.1524 39.909 87.5122C36.9675 86.4817 33.4695 84.7378 32.277 83.7073C29.9715 81.8841 29.9715 81.8841 30.846 77.2866C32.118 71.1037 34.9005 65.3171 38.637 61.1158L41.817 57.628L39.909 53.8232C37.6035 49.3049 37.2855 40.8232 39.273 36.1463C44.361 23.939 58.194 18.311 70.119 23.6219ZM22.737 43.1219C25.0425 45.4207 25.44 46.3719 25.44 49.7012C25.44 54.061 24.0885 56.5183 20.67 58.2622C13.674 61.9085 6.35999 57.2317 6.35999 49.0671C6.35999 46.4512 6.83699 45.3415 9.06299 43.1219C11.448 40.7439 12.243 40.4268 15.9 40.4268C19.557 40.4268 20.352 40.7439 22.737 43.1219ZM147.87 41.6158C152.243 43.8354 153.912 49.939 151.448 54.6951C148.347 60.7195 138.728 60.9573 134.832 55.1707C134.117 54.061 133.56 51.6037 133.56 49.4634C133.56 46.3719 133.958 45.4207 136.263 43.1219C138.489 40.9024 139.602 40.4268 142.226 40.4268C144.054 40.4268 146.598 40.9817 147.87 41.6158ZM39.591 93.6158C61.215 101.146 97.2285 101.305 118.455 93.9329C128.233 90.5244 127.677 90.3658 124.974 95.5976C121.635 102.018 117.819 106.299 111.062 110.738C102.396 116.524 94.128 119.061 81.885 119.537C73.458 119.854 70.8345 119.616 65.19 118.189C52.947 115.177 42.135 108.36 36.4905 100.195C33.9465 96.5488 31.482 91.1585 32.277 91.1585C32.5155 91.1585 35.8545 92.2683 39.591 93.6158Z" fill="#7C3AED"/>
<path d="M59.5455 39.1585C56.6835 40.8232 54.537 45.4207 55.173 48.6707C55.809 52 59.466 55.4085 62.964 55.9634C70.9935 57.311 76.3995 47.2439 70.914 41.1402C68.2905 38.2073 62.964 37.2561 59.5455 39.1585Z" fill="#7C3AED"/>
<path d="M90.948 38.8415C84.6675 41.378 84.111 51.0488 89.994 54.7744C97.5465 59.4512 106.768 51.2866 102.952 43.2805C100.806 38.7622 95.718 36.939 90.948 38.8415Z" fill="#7C3AED"/>
</g>
<defs>
<clipPath id="clip0_1_19">
<rect width="159" height="130" fill="white"/>
</clipPath>
</defs>
</svg>
