<svg width="174" height="142" viewBox="0 0 174 142" fill="none" xmlns="http://www.w3.org/2000/svg">
<path d="M14.0286 38.9634L4.89355 50.3277L6.85105 65.5884L24.1423 76.3034V90.2652L38.8236 118.514L82.8673 136.697L123.649 127.605L147.465 100.655L151.706 70.1341L169.324 65.5884V50.3277L161.82 40.9116L137.025 31.8201L101.137 16.2348H65.5761C63.7491 16.2348 44.3698 28.1402 34.9086 34.093L14.0286 38.9634Z" fill="#F0E8FF" stroke="black"/>
<path d="M72.1234 2.25122C58.2034 5.19513 45.7624 12.3817 35.2354 23.5512C28.8844 30.3049 28.3624 30.6512 25.1434 30.3915C16.4434 29.7854 6.43835 35.7598 2.61035 43.8988C0.348353 48.7476 -0.0866475 56.7134 1.65335 61.8219C3.13235 65.978 8.78735 72.2988 13.1374 74.4634C16.1824 76.0219 16.4434 76.4549 17.3134 81.9963C18.7924 90.3085 20.5324 95.4171 25.0564 104.335C28.3624 110.656 30.6244 113.687 37.4104 120.44C44.7184 127.8 46.7194 129.272 54.8104 133.168C66.1204 138.71 71.8624 140.268 83.5204 140.874C103.356 141.913 121.017 135.42 135.372 121.826C146.682 111.176 154.251 97.1488 156.687 82.4293C157.644 76.4549 157.905 76.1085 160.776 74.7232C165.039 72.7317 169.563 67.9695 171.651 63.2939C173.913 58.4451 174.087 49.6134 171.999 44.8512C168.345 36.3659 158.34 29.9585 149.553 30.3915C145.464 30.6512 145.464 30.6512 138.765 23.5512C124.236 8.13902 107.097 0.779266 86.3914 0.952438C81.6934 0.952438 75.2554 1.55853 72.1234 2.25122ZM76.7344 25.8024C78.9094 26.7549 82.0414 28.9195 83.7814 30.6512L87.0004 33.8549L90.2194 30.6512C97.6144 23.2915 109.185 21.5598 118.755 26.4085C124.671 29.439 129.717 35.3268 131.37 41.2146C132.849 46.4098 132.153 55.1549 129.978 59.3976L128.151 62.7744L131.457 66.5841C133.284 68.6622 135.807 72.2988 137.025 74.8098C139.287 79.4854 141.375 88.5768 140.505 90.0488C140.157 90.5683 137.547 92.1268 134.676 93.5988C113.883 104.076 69.1654 105.028 43.6744 95.5902C40.4554 94.4646 36.6274 92.5597 35.3224 91.4341C32.7994 89.4427 32.7994 89.4427 33.7564 84.4207C35.1484 77.6671 38.1934 71.3463 42.2824 66.7573L45.7624 62.9476L43.6744 58.7915C41.1514 53.8561 40.8034 44.5915 42.9784 39.4829C48.5464 26.1488 63.6844 20.0012 76.7344 25.8024ZM24.8824 47.1024C27.4054 49.6134 27.8404 50.6524 27.8404 54.289C27.8404 59.0512 26.3614 61.7354 22.6204 63.6402C14.9644 67.6232 6.96035 62.5146 6.96035 53.5963C6.96035 50.739 7.48235 49.5268 9.91835 47.1024C12.5284 44.5049 13.3984 44.1585 17.4004 44.1585C21.4024 44.1585 22.2724 44.5049 24.8824 47.1024ZM161.82 45.4573C166.605 47.8817 168.432 54.5488 165.735 59.7439C162.342 66.3244 151.815 66.5841 147.552 60.2634C146.769 59.0512 146.16 56.3671 146.16 54.0293C146.16 50.6524 146.595 49.6134 149.118 47.1024C151.554 44.678 152.772 44.1585 155.643 44.1585C157.644 44.1585 160.428 44.7646 161.82 45.4573ZM43.3264 102.257C66.9904 110.483 106.401 110.656 129.63 102.604C140.331 98.8805 139.722 98.7073 136.764 104.422C133.11 111.435 128.934 116.111 121.539 120.96C112.056 127.28 103.008 130.051 89.6104 130.571C80.3884 130.917 77.5174 130.657 71.3404 129.099C57.9424 125.809 46.1104 118.362 39.9334 109.444C37.1494 105.461 34.4524 99.5732 35.3224 99.5732C35.5834 99.5732 39.2374 100.785 43.3264 102.257Z" fill="#6E44FF"/>
<path d="M65.1638 42.7732C62.0318 44.5915 59.6828 49.6134 60.3788 53.1634C61.0748 56.8 65.0768 60.5232 68.9048 61.1293C77.6918 62.6012 83.6078 51.6049 77.6048 44.9378C74.7338 41.7341 68.9048 40.6951 65.1638 42.7732Z" fill="#6E44FF"/>
<path d="M99.528 42.4268C92.655 45.1976 92.046 55.761 98.484 59.8305C106.749 64.939 116.841 56.0207 112.665 47.2756C110.316 42.3402 104.748 40.3488 99.528 42.4268Z" fill="#6E44FF"/>
</svg>
