<svg width="670" height="320" viewBox="0 0 670 320" fill="none" xmlns="http://www.w3.org/2000/svg">
<rect width="670" height="320" fill="#212121"/>
<path d="M252.102 190H236.284L260.386 120.182H279.409L303.477 190H287.659L270.17 136.136H269.625L252.102 190ZM251.114 162.557H288.477V174.08H251.114V162.557ZM311.881 190V120.182H339.426C344.722 120.182 349.233 121.193 352.96 123.216C356.688 125.216 359.528 128 361.483 131.568C363.46 135.114 364.449 139.205 364.449 143.841C364.449 148.477 363.449 152.568 361.449 156.114C359.449 159.659 356.551 162.42 352.756 164.398C348.983 166.375 344.415 167.364 339.051 167.364H321.494V155.534H336.665C339.506 155.534 341.847 155.045 343.688 154.068C345.551 153.068 346.938 151.693 347.847 149.943C348.778 148.17 349.244 146.136 349.244 143.841C349.244 141.523 348.778 139.5 347.847 137.773C346.938 136.023 345.551 134.67 343.688 133.716C341.824 132.739 339.46 132.25 336.597 132.25H326.642V190H311.881ZM374.037 190V120.182H388.798V150.966H389.719L414.844 120.182H432.537L406.628 151.443L432.844 190H415.185L396.06 161.295L388.798 170.159V190H374.037Z" fill="#FFDD00"/>
</svg>
