<svg width="315" height="72" viewBox="0 0 315 72" fill="none" xmlns="http://www.w3.org/2000/svg">
<path d="M205.322 36.5367C206.354 37.3099 208.034 38.59 210.11 40.195C212.157 41.7947 214.603 43.7085 217.205 45.7489C219.752 47.7228 222.441 49.7381 225.083 51.5042C227.723 53.2777 230.32 54.8027 232.614 55.9151C235.267 57.2177 237.936 58.2117 240.54 58.807C243.147 59.4065 245.669 59.536 248.08 59.2132C249.283 59.0457 250.481 58.7797 251.628 58.369C252.79 57.961 253.967 57.4246 255.17 56.7763C257.575 55.4726 260.055 53.6869 262.703 51.7222C264.031 50.7369 265.408 49.7117 266.854 48.6805L267.955 47.9085L269.094 47.1395C269.861 46.6323 270.67 46.1477 271.458 45.6554C274.651 43.7391 278.004 42.1115 281.454 40.7873C288.357 38.1469 295.665 36.6929 302.97 36.5676C303.54 36.5454 304.162 36.5631 304.809 36.563C305.459 36.5745 306.132 36.5602 306.816 36.6269C307.499 36.6785 308.186 36.7495 308.854 36.8396C309.523 36.9297 310.174 37.0917 310.78 37.2565C311.997 37.5797 313.042 38.1001 313.728 38.7641C314.417 39.4287 314.751 40.2528 314.582 41.2841C314.409 42.3596 313.967 43.2914 313.315 44.0793C312.988 44.4729 312.611 44.8274 312.19 45.1434C311.977 45.303 311.755 45.4496 311.519 45.5899C311.283 45.7338 311.039 45.88 310.783 46.009C310.27 46.2707 309.715 46.4946 309.119 46.6807C308.526 46.8711 307.888 47.0644 307.216 47.1916C306.542 47.3144 305.833 47.4457 305.081 47.5393C304.706 47.5824 304.321 47.62 303.927 47.6446C303.534 47.688 303.131 47.7222 302.718 47.747C300.713 47.8373 298.715 48.094 296.719 48.381C296.221 48.4578 295.727 48.5614 295.227 48.6491C294.733 48.749 294.231 48.8136 293.74 48.9403C292.756 49.1748 291.759 49.3654 290.791 49.6591C286.884 50.7221 283.052 52.167 279.473 54.1019L278.136 54.834C277.684 55.0694 277.267 55.3601 276.829 55.6206C276.397 55.8898 275.96 56.1467 275.534 56.4281C275.105 56.7204 274.68 56.9945 274.25 57.2977C272.534 58.4928 270.807 59.8098 269.018 61.1639C267.228 62.518 265.378 63.9136 263.382 65.2519C261.389 66.5909 259.225 67.8607 256.865 68.9176C253.401 70.4983 249.521 71.3524 245.68 71.474C241.833 71.5681 238.065 70.9487 234.569 69.8952C231.07 68.8338 227.808 67.3844 224.751 65.7366C221.686 64.0946 218.823 62.2535 216.069 60.3428C213.32 58.429 210.691 56.4361 208.125 54.4436L204.341 51.5083L200.552 48.6173C195.486 44.7798 190.354 41.0389 185.127 37.4269C180.439 34.1776 175.715 30.9817 170.95 27.8421L167.371 25.4968L163.796 23.1933C161.461 21.7094 159.104 20.3076 156.722 19.04C151.972 16.5113 147.06 14.4708 142.262 13.6116C141.068 13.4054 139.884 13.2686 138.726 13.2154C137.567 13.1658 136.438 13.2193 135.339 13.3498C134.24 13.4803 133.18 13.708 132.163 14.0415C131.147 14.375 130.162 14.7819 129.225 15.3104C127.478 16.2896 125.905 17.5898 124.486 19.2042C123.068 20.8149 121.805 22.721 120.664 24.8185C118.367 29.0261 116.572 33.9084 114.534 39.0426C114.04 40.2951 113.459 41.7155 112.846 43.0625C112.227 44.4196 111.565 45.7688 110.846 47.1035C109.409 49.7694 107.747 52.3901 105.733 54.8929C103.722 57.3848 101.35 59.7799 98.4344 61.7927C96.9793 62.7958 95.3833 63.6902 93.6658 64.4119C91.952 65.1343 90.1144 65.6761 88.2309 65.9803C86.6068 66.2387 84.9632 66.3396 83.3273 66.2579C81.7022 66.1782 80.1413 65.934 78.6737 65.5907C75.7318 64.899 73.1684 63.8419 70.8517 62.7668C69.6941 62.2256 68.5927 61.6835 67.5411 61.1357L64.3566 59.4904C63.2935 58.9442 62.2529 58.3571 61.201 57.7905C60.1541 57.2172 59.1016 56.6542 58.0667 56.0569L54.9591 54.2795C53.9278 53.6828 52.9084 53.0621 51.8834 52.4516C49.8264 51.2481 47.8151 49.9592 45.7849 48.7119L42.7771 46.7802L41.275 45.8147L39.7885 44.8259L36.8105 42.8547L33.8629 40.8403C32.9301 40.2169 31.9388 39.5864 30.9033 38.9514C29.8678 38.3164 28.7806 37.6982 27.6915 37.0495C25.5269 35.7397 23.3064 34.4083 21.3487 32.9116C19.7082 31.7027 17.569 30.0334 15.4477 28.3486C13.3562 26.6244 11.2782 24.8876 9.84771 23.4548C8.59918 22.2322 7.32952 20.9418 5.94181 19.9449C4.33496 18.8174 3.09152 17.8097 2.23699 16.8854C1.37387 15.967 0.871202 15.1642 0.727137 14.4467C0.441955 13.0159 1.60229 11.9468 4.1458 11.0103C5.26307 10.5978 5.68958 9.14502 7.54154 9.81866C7.61849 9.84794 7.76942 9.9022 7.84476 9.91991C8.60405 10.1057 9.31571 10.3465 9.99892 10.6195C10.6864 10.8896 11.3369 11.1979 11.9619 11.5428C13.2118 12.2325 14.3374 13.0681 15.4454 13.9381C16.5484 14.8146 17.5905 15.7774 18.656 16.7145C19.7259 17.6487 20.8023 18.5879 21.9327 19.4582C33.1043 27.9041 44.8788 35.5418 57.1448 42.2643C58.682 43.1012 60.2106 43.9439 61.7667 44.7392L64.0917 45.9511C64.867 46.3538 65.6542 46.7325 66.4344 47.1286L68.7819 48.2996L71.1485 49.4291L73.5157 50.5549C74.3019 50.9184 75.0685 51.267 75.8239 51.5947C78.8305 52.9067 81.6393 53.7914 84.0667 53.8246C86.503 53.8706 88.8322 53.1609 91.0741 51.7104C93.8244 49.9411 96.3423 47.1225 98.47 43.9049C99.5399 42.2934 100.518 40.5711 101.414 38.7849C101.864 37.8921 102.288 36.9794 102.695 36.0598C102.894 35.6123 103.103 35.1104 103.314 34.6164L103.939 33.1252C105.618 29.1113 107.29 24.8817 109.501 20.6246C110.592 18.4989 111.849 16.3627 113.33 14.2869C114.808 12.2141 116.507 10.175 118.557 8.36963C119.087 7.85215 119.692 7.39727 120.274 6.91956L121.162 6.21294L122.105 5.56558C122.739 5.13853 123.367 4.69561 124.041 4.3324C124.375 4.14649 124.705 3.94474 125.05 3.77603L126.092 3.26697C127.495 2.6259 128.963 2.07944 130.469 1.73152C131.973 1.35323 133.506 1.16057 135.028 1.12735L134.927 1.13102C136.506 0.950714 138.07 0.917624 139.62 0.938307C141.162 0.980099 142.68 1.11493 144.169 1.3233C147.135 1.76048 149.981 2.48686 152.656 3.46336C155.193 4.38035 157.633 5.44068 159.99 6.59851C162.352 7.75337 164.634 8.99484 166.852 10.2995C169.069 11.589 171.256 12.9817 173.293 14.2941C175.364 15.6205 177.422 16.963 179.47 18.3151C187.656 23.7219 195.599 29.3242 202.967 35.0038C203.55 35.4535 204.462 35.8854 205.322 36.5367Z" fill="#F2F2F2"/>
</svg>
