<svg width="322" height="142" viewBox="0 0 322 142" fill="none" xmlns="http://www.w3.org/2000/svg">
<path d="M23.5703 5.40741C22.4744 13.9408 17.9831 21.7378 13.7433 29.0496C9.07241 37.1159 4.16792 45.2541 1.63484 54.3085C-0.556904 62.1773 -0.754515 70.6748 2.33549 78.3459C5.35363 85.8374 10.851 92.1072 18.7017 94.6043C28.2592 97.6404 38.122 93.8677 46.889 90.1849C56.2668 86.2325 65.6266 82.2802 75.0044 78.3279C93.8858 70.3694 112.767 62.4109 131.648 54.4523C138.349 51.6318 145.931 48.2363 152.65 47.9848C155.794 47.859 157.824 48.1106 160.177 49.5657C161.992 50.6975 163.501 53.3564 163.644 55.9973C164.058 63.9558 158.991 71.4113 155.183 78.1662C150.907 85.7475 146.991 93.5803 146.272 102.383C145.643 109.982 147.709 118.157 153.081 123.744C159.351 130.283 168.477 131.307 176.992 129.888C185.921 128.397 194.419 124.319 202.808 121.049C212.204 117.384 221.582 113.719 230.978 110.054C239.817 106.605 248.619 102.85 257.728 100.138C265.363 97.856 273.735 96.0595 281.675 97.7122C296.443 100.766 303.251 114.132 307.527 127.337C308.659 130.84 309.665 134.397 310.617 137.954C312.414 144.655 322.815 141.799 321.019 135.08C317.246 121.013 312.557 105.24 300.97 95.4846C294.233 89.8076 286.077 86.7895 277.292 86.3763C268.291 85.9451 259.219 88.1728 250.757 91.0293C241.703 94.0654 232.864 97.7842 223.971 101.251C214.576 104.916 205.198 108.581 195.802 112.246C188.167 115.228 179.921 119.27 171.729 119.702C168.225 119.881 165.118 119.45 162.189 117.42C160.231 116.055 158.614 113.486 157.86 111.042C155.883 104.647 157.267 97.9638 160.321 91.4964C164.165 83.3402 169.591 75.9386 172.573 67.3692C175.412 59.2131 175.394 49.5478 169.07 42.9905C163.537 37.2417 155.344 36.559 147.889 37.6728C139.859 38.8765 132.475 42.4695 125.055 45.5954C115.677 49.5477 106.318 53.5001 96.9398 57.4524C78.2741 65.3212 59.6622 73.4055 40.9066 81.0586C36.8465 82.7114 32.481 84.472 28.0795 84.8133C24.1631 85.1187 20.9474 84.4001 18.055 82.3341C17.3543 81.8311 16.1147 80.6454 15.2345 79.5675C15.5938 79.9987 14.9829 79.2441 14.9829 79.2262C14.7494 78.9028 14.5158 78.5615 14.3003 78.2201C13.7613 77.3578 13.2583 76.4775 12.8271 75.5613C11.7133 73.2438 10.8689 69.4891 10.7611 66.9201C10.4198 58.5843 14.0128 50.6256 17.9113 43.4755C22.3307 35.3373 27.3968 27.5944 30.8821 18.9712C32.6606 14.5697 33.7565 10.0964 34.3493 5.38954C34.7266 2.49715 31.6007 0 28.9598 0C25.744 0.0179651 23.9475 2.49706 23.5703 5.40741Z" fill="#8B5CF6"/>
</svg>
