<svg width="670" height="320" viewBox="0 0 670 320" fill="none" xmlns="http://www.w3.org/2000/svg">
<rect width="670" height="320" fill="#1A1A1A"/>
<path d="M182.376 169.088C182.376 171.264 182.12 173.312 181.608 175.232C181.139 177.152 180.285 178.837 179.048 180.288C177.853 181.696 176.211 182.827 174.12 183.68C172.072 184.491 169.469 184.896 166.312 184.896C163.411 184.896 160.915 184.555 158.824 183.872C156.733 183.147 155.005 182.315 153.64 181.376L156.968 173.632C158.205 174.357 159.528 174.997 160.936 175.552C162.344 176.107 163.88 176.384 165.544 176.384C167.976 176.384 169.725 175.787 170.792 174.592C171.859 173.397 172.392 171.392 172.392 168.576V139.648H182.376V169.088ZM189.755 167.424C189.755 164.437 190.203 161.835 191.099 159.616C192.038 157.355 193.254 155.477 194.747 153.984C196.24 152.491 197.947 151.36 199.867 150.592C201.83 149.824 203.835 149.44 205.883 149.44C210.662 149.44 214.438 150.912 217.211 153.856C219.984 156.757 221.371 161.045 221.371 166.72C221.371 167.275 221.35 167.893 221.307 168.576C221.264 169.216 221.222 169.792 221.179 170.304H199.547C199.76 172.267 200.678 173.824 202.299 174.976C203.92 176.128 206.096 176.704 208.827 176.704C210.576 176.704 212.283 176.555 213.947 176.256C215.654 175.915 217.04 175.509 218.107 175.04L219.387 182.784C218.875 183.04 218.192 183.296 217.339 183.552C216.486 183.808 215.526 184.021 214.459 184.192C213.435 184.405 212.326 184.576 211.131 184.704C209.936 184.832 208.742 184.896 207.547 184.896C204.518 184.896 201.872 184.448 199.611 183.552C197.392 182.656 195.536 181.44 194.043 179.904C192.592 178.325 191.504 176.469 190.779 174.336C190.096 172.203 189.755 169.899 189.755 167.424ZM212.155 163.776C212.112 162.965 211.963 162.176 211.707 161.408C211.494 160.64 211.131 159.957 210.619 159.36C210.15 158.763 209.531 158.272 208.763 157.888C208.038 157.504 207.12 157.312 206.011 157.312C204.944 157.312 204.027 157.504 203.259 157.888C202.491 158.229 201.851 158.699 201.339 159.296C200.827 159.893 200.422 160.597 200.123 161.408C199.867 162.176 199.675 162.965 199.547 163.776H212.155ZM227.13 167.424C227.13 164.437 227.578 161.835 228.474 159.616C229.413 157.355 230.629 155.477 232.122 153.984C233.615 152.491 235.322 151.36 237.242 150.592C239.205 149.824 241.21 149.44 243.258 149.44C248.037 149.44 251.813 150.912 254.586 153.856C257.359 156.757 258.746 161.045 258.746 166.72C258.746 167.275 258.725 167.893 258.682 168.576C258.639 169.216 258.597 169.792 258.554 170.304H236.922C237.135 172.267 238.053 173.824 239.674 174.976C241.295 176.128 243.471 176.704 246.202 176.704C247.951 176.704 249.658 176.555 251.322 176.256C253.029 175.915 254.415 175.509 255.482 175.04L256.762 182.784C256.25 183.04 255.567 183.296 254.714 183.552C253.861 183.808 252.901 184.021 251.834 184.192C250.81 184.405 249.701 184.576 248.506 184.704C247.311 184.832 246.117 184.896 244.922 184.896C241.893 184.896 239.247 184.448 236.986 183.552C234.767 182.656 232.911 181.44 231.418 179.904C229.967 178.325 228.879 176.469 228.154 174.336C227.471 172.203 227.13 169.899 227.13 167.424ZM249.53 163.776C249.487 162.965 249.338 162.176 249.082 161.408C248.869 160.64 248.506 159.957 247.994 159.36C247.525 158.763 246.906 158.272 246.138 157.888C245.413 157.504 244.495 157.312 243.386 157.312C242.319 157.312 241.402 157.504 240.634 157.888C239.866 158.229 239.226 158.699 238.714 159.296C238.202 159.893 237.797 160.597 237.498 161.408C237.242 162.176 237.05 162.965 236.922 163.776H249.53ZM275.641 162.496C276.58 161.472 277.54 160.405 278.521 159.296C279.545 158.187 280.526 157.099 281.465 156.032C282.404 154.923 283.278 153.877 284.089 152.896C284.942 151.915 285.668 151.061 286.265 150.336H297.593C295.332 152.939 293.113 155.435 290.937 157.824C288.804 160.171 286.457 162.603 283.897 165.12C285.177 166.272 286.5 167.659 287.865 169.28C289.23 170.859 290.553 172.501 291.833 174.208C293.113 175.915 294.286 177.621 295.353 179.328C296.42 181.035 297.316 182.592 298.041 184H287.097C286.414 182.891 285.625 181.675 284.729 180.352C283.876 178.987 282.958 177.643 281.977 176.32C280.996 174.955 279.95 173.653 278.841 172.416C277.774 171.179 276.708 170.133 275.641 169.28V184H266.105V135.872L275.641 134.336V162.496ZM327.567 161.792C327.567 163.968 327.823 165.931 328.335 167.68C328.889 169.429 329.657 170.944 330.639 172.224C331.663 173.461 332.9 174.421 334.351 175.104C335.801 175.787 337.465 176.128 339.343 176.128C341.177 176.128 342.82 175.787 344.271 175.104C345.764 174.421 347.001 173.461 347.983 172.224C349.007 170.944 349.775 169.429 350.287 167.68C350.841 165.931 351.119 163.968 351.119 161.792C351.119 159.616 350.841 157.653 350.287 155.904C349.775 154.112 349.007 152.597 347.983 151.36C347.001 150.08 345.764 149.099 344.271 148.416C342.82 147.733 341.177 147.392 339.343 147.392C337.465 147.392 335.801 147.755 334.351 148.48C332.9 149.163 331.663 150.144 330.639 151.424C329.657 152.661 328.889 154.176 328.335 155.968C327.823 157.717 327.567 159.659 327.567 161.792ZM361.423 161.792C361.423 165.589 360.847 168.939 359.695 171.84C358.585 174.699 357.049 177.109 355.087 179.072C353.124 180.992 350.777 182.443 348.047 183.424C345.359 184.405 342.457 184.896 339.343 184.896C336.313 184.896 333.455 184.405 330.767 183.424C328.079 182.443 325.732 180.992 323.727 179.072C321.721 177.109 320.143 174.699 318.991 171.84C317.839 168.939 317.263 165.589 317.263 161.792C317.263 157.995 317.86 154.667 319.055 151.808C320.249 148.907 321.849 146.475 323.855 144.512C325.903 142.549 328.249 141.077 330.895 140.096C333.583 139.115 336.399 138.624 339.343 138.624C342.372 138.624 345.231 139.115 347.919 140.096C350.607 141.077 352.953 142.549 354.959 144.512C356.964 146.475 358.543 148.907 359.695 151.808C360.847 154.667 361.423 157.995 361.423 161.792ZM369.105 151.488C370.726 151.019 372.817 150.592 375.377 150.208C377.937 149.781 380.625 149.568 383.441 149.568C386.3 149.568 388.668 149.952 390.545 150.72C392.465 151.445 393.98 152.491 395.089 153.856C396.198 155.221 396.988 156.843 397.457 158.72C397.926 160.597 398.161 162.688 398.161 164.992V184H388.625V166.144C388.625 163.072 388.22 160.896 387.409 159.616C386.598 158.336 385.084 157.696 382.865 157.696C382.182 157.696 381.457 157.739 380.689 157.824C379.921 157.867 379.238 157.931 378.641 158.016V184H369.105V151.488ZM420.233 184.64C417.459 184.597 415.198 184.299 413.449 183.744C411.742 183.189 410.377 182.421 409.353 181.44C408.371 180.416 407.689 179.2 407.305 177.792C406.963 176.341 406.793 174.72 406.793 172.928V135.872L416.329 134.336V171.008C416.329 171.861 416.393 172.629 416.521 173.312C416.649 173.995 416.883 174.571 417.225 175.04C417.609 175.509 418.142 175.893 418.825 176.192C419.507 176.491 420.425 176.683 421.577 176.768L420.233 184.64ZM436.579 184H427.043V150.336H436.579V184ZM437.475 140.608C437.475 142.357 436.899 143.744 435.747 144.768C434.637 145.749 433.315 146.24 431.779 146.24C430.243 146.24 428.899 145.749 427.747 144.768C426.637 143.744 426.083 142.357 426.083 140.608C426.083 138.859 426.637 137.493 427.747 136.512C428.899 135.488 430.243 134.976 431.779 134.976C433.315 134.976 434.637 135.488 435.747 136.512C436.899 137.493 437.475 138.859 437.475 140.608ZM445.543 151.488C447.164 151.019 449.255 150.592 451.815 150.208C454.375 149.781 457.063 149.568 459.878 149.568C462.737 149.568 465.105 149.952 466.983 150.72C468.903 151.445 470.417 152.491 471.527 153.856C472.636 155.221 473.425 156.843 473.895 158.72C474.364 160.597 474.599 162.688 474.599 164.992V184H465.063V166.144C465.063 163.072 464.657 160.896 463.847 159.616C463.036 158.336 461.521 157.696 459.303 157.696C458.62 157.696 457.895 157.739 457.127 157.824C456.359 157.867 455.676 157.931 455.079 158.016V184H445.543V151.488ZM481.63 167.424C481.63 164.437 482.078 161.835 482.974 159.616C483.913 157.355 485.129 155.477 486.622 153.984C488.115 152.491 489.822 151.36 491.742 150.592C493.705 149.824 495.71 149.44 497.758 149.44C502.537 149.44 506.313 150.912 509.086 153.856C511.859 156.757 513.246 161.045 513.246 166.72C513.246 167.275 513.225 167.893 513.182 168.576C513.139 169.216 513.097 169.792 513.054 170.304H491.422C491.635 172.267 492.553 173.824 494.174 174.976C495.795 176.128 497.971 176.704 500.702 176.704C502.451 176.704 504.158 176.555 505.822 176.256C507.529 175.915 508.915 175.509 509.982 175.04L511.262 182.784C510.75 183.04 510.067 183.296 509.214 183.552C508.361 183.808 507.401 184.021 506.334 184.192C505.31 184.405 504.201 184.576 503.006 184.704C501.811 184.832 500.617 184.896 499.422 184.896C496.393 184.896 493.747 184.448 491.486 183.552C489.267 182.656 487.411 181.44 485.918 179.904C484.467 178.325 483.379 176.469 482.654 174.336C481.971 172.203 481.63 169.899 481.63 167.424ZM504.03 163.776C503.987 162.965 503.838 162.176 503.582 161.408C503.369 160.64 503.006 159.957 502.494 159.36C502.025 158.763 501.406 158.272 500.638 157.888C499.913 157.504 498.995 157.312 497.886 157.312C496.819 157.312 495.902 157.504 495.134 157.888C494.366 158.229 493.726 158.699 493.214 159.296C492.702 159.893 492.297 160.597 491.998 161.408C491.742 162.176 491.55 162.965 491.422 163.776H504.03Z" fill="white"/>
</svg>
