<svg width="16" height="16" viewBox="0 0 16 16" fill="none" xmlns="http://www.w3.org/2000/svg">
<path d="M4.95311 0.507559C4.96477 0.501841 4.97164 0.500562 4.97407 0.50022C4.97657 0.499869 4.97813 0.499979 4.97969 0.500265C4.9829 0.50085 4.99509 0.504205 5.01166 0.519731C5.0481 0.553885 5.07165 0.614183 5.05685 0.678578C4.43821 3.37006 4.44658 6.5455 6.63805 8.84495C8.79657 11.1098 12.4902 11.9002 15.3124 11.4516C15.388 11.4395 15.4528 11.4712 15.4849 11.509C15.4961 11.5222 15.4991 11.5312 15.4999 11.5338C15.4993 11.5362 15.4975 11.5408 15.4932 11.5482C15.1101 12.2004 14.6247 12.8098 14.0371 13.3536C10.8015 16.3477 5.71299 16.1898 2.67519 13.0023C-0.358629 9.81902 -0.199718 4.81741 3.03167 1.82716C3.6193 1.28338 4.26749 0.843893 4.95311 0.507559ZM15.5001 11.532C15.5002 11.532 15.5002 11.5325 15.5 11.5335C15.4999 11.5325 15.5001 11.532 15.5001 11.532Z" fill="black" stroke="black"/>
</svg>
